<mxfile>
    <diagram id="i0sznkB6wCeKxleQH_he" name="Page-1">
        <mxGraphModel dx="519" dy="617" grid="1" gridSize="10" guides="1" tooltips="1" connect="1" arrows="1" fold="1" page="1" pageScale="1" pageWidth="827" pageHeight="1169" math="0" shadow="0">
            <root>
                <mxCell id="0"/>
                <mxCell id="1" parent="0"/>
                <mxCell id="2" value="Chat" style="rounded=0;whiteSpace=wrap;html=1;" parent="1" vertex="1">
                    <mxGeometry x="360" y="240" width="290" height="40" as="geometry"/>
                </mxCell>
                <mxCell id="3" value="-users: Array&amp;lt;User&amp;gt;" style="rounded=0;whiteSpace=wrap;html=1;" parent="1" vertex="1">
                    <mxGeometry x="360" y="280" width="290" height="40" as="geometry"/>
                </mxCell>
                <mxCell id="4" value="+register( user: User ): void&lt;br&gt;+send( message: str, receiveFrom: User, sendTo: User ): void" style="rounded=0;whiteSpace=wrap;html=1;" parent="1" vertex="1">
                    <mxGeometry x="360" y="320" width="290" height="60" as="geometry"/>
                </mxCell>
                <mxCell id="5" value="User" style="rounded=0;whiteSpace=wrap;html=1;" parent="1" vertex="1">
                    <mxGeometry x="360" y="480" width="290" height="40" as="geometry"/>
                </mxCell>
                <mxCell id="6" value="+chat: Chat&lt;br&gt;userId: number&lt;br&gt;-constructor( name: str )" style="rounded=0;whiteSpace=wrap;html=1;" parent="1" vertex="1">
                    <mxGeometry x="360" y="520" width="290" height="60" as="geometry"/>
                </mxCell>
                <mxCell id="7" value="+sendMessage( message: str, setndTo: User ): void&lt;br&gt;+receiveMessage( message: str, receiveFrom: User )" style="rounded=0;whiteSpace=wrap;html=1;" parent="1" vertex="1">
                    <mxGeometry x="360" y="580" width="290" height="60" as="geometry"/>
                </mxCell>
                <mxCell id="8" value="" style="endArrow=none;dashed=1;html=1;dashPattern=1 3;strokeWidth=2;" parent="1" edge="1">
                    <mxGeometry width="50" height="50" relative="1" as="geometry">
                        <mxPoint x="505" y="480" as="sourcePoint"/>
                        <mxPoint x="505" y="400" as="targetPoint"/>
                    </mxGeometry>
                </mxCell>
                <mxCell id="12" value="" style="triangle;whiteSpace=wrap;html=1;rotation=-90;" vertex="1" parent="1">
                    <mxGeometry x="495" y="380" width="20" height="20" as="geometry"/>
                </mxCell>
            </root>
        </mxGraphModel>
    </diagram>
</mxfile>